<?xml version="1.0" encoding="UTF-8" standalone="no"?>
<!-- Created with Inkscape (http://www.inkscape.org/) -->

<svg
   width="317.5mm"
   height="317.5mm"
   viewBox="0 0 317.5 317.49999"
   version="1.1"
   id="svg1"
   sodipodi:docname="mushcap.svg"
   inkscape:version="1.3 (0e150ed6c4, 2023-07-21)"
   inkscape:export-filename="favison.png"
   inkscape:export-xdpi="480.30145"
   inkscape:export-ydpi="480.30145"
   xmlns:inkscape="http://www.inkscape.org/namespaces/inkscape"
   xmlns:sodipodi="http://sodipodi.sourceforge.net/DTD/sodipodi-0.dtd"
   xmlns="http://www.w3.org/2000/svg"
   xmlns:svg="http://www.w3.org/2000/svg">
  <sodipodi:namedview
     id="namedview1"
     pagecolor="#ffffff"
     bordercolor="#000000"
     borderopacity="0.25"
     inkscape:showpageshadow="2"
     inkscape:pageopacity="0.0"
     inkscape:pagecheckerboard="0"
     inkscape:deskcolor="#d1d1d1"
     inkscape:document-units="mm"
     inkscape:zoom="1.0583333"
     inkscape:cx="628.34646"
     inkscape:cy="613.22835"
     inkscape:window-width="5120"
     inkscape:window-height="1392"
     inkscape:window-x="0"
     inkscape:window-y="0"
     inkscape:window-maximized="1"
     inkscape:current-layer="layer1" />
  <defs
     id="defs1" />
  <g
     inkscape:label="Layer 1"
     inkscape:groupmode="layer"
     id="layer1"
     transform="translate(61.383331,-6.3500006)">
    <g
       id="SvgjsG17036"
       featureKey="41S5F6-0"
       transform="matrix(3.3533418,0,0,3.3533418,-70.482347,14.84877)"
       fill="#fa8c3e">
      <g
         id="g3">
        <path
           fill-rule="evenodd"
           clip-rule="evenodd"
           d="m 71.856,33.937 c -0.287,-0.04 -0.569,-0.087 -0.851,-0.139 1.472,0.68 2.882,1.618 4.267,2.521 -1.048,-0.922 -2.251,-1.623 -3.416,-2.382 z"
           id="path1" />
        <path
           d="m 94.555,43.874 c -1.256,-0.377 -2.913,-0.377 -3.959,-1.138 -0.634,-0.296 -1.597,-0.624 -2.185,-1.001 -3.882,-2.23 -6.507,-4.323 -10.888,-5.719 -0.374,0.378 -0.677,1.083 -1.218,0.962 0.394,0.245 0.785,0.482 1.178,0.697 1.237,0.68 2.491,1.421 3.729,2.074 1.054,0.553 2.716,0.821 3.315,2.071 -4.847,1.582 -10.724,1.98 -16.161,2.485 -8.174,0.766 -15.134,-0.002 -23.641,-2.343 -8.932,-2.458 -13.788,-7.508 -29.402,-3.043 4.143,-3.895 9.739,-5.385 15.332,-7.044 5.264,-1.562 11.139,-3.132 17.404,-3.315 0.208,-0.006 0.406,0.007 0.607,0.013 2.641,-0.303 5.399,-0.038 7.917,0.67 1.049,0.294 1.961,0.512 3.431,1.047 1.945,0.888 2.948,1.193 4.619,1.999 1.02,0.491 3.262,1.321 4.396,1.509 -1.834,-0.728 -4.438,-2.649 -5.886,-4.18 -0.183,-0.193 -0.282,-0.4 -0.347,-0.61 -0.415,-0.229 -0.836,-0.456 -1.228,-0.698 -2.706,-0.802 -5.372,-1.555 -6.881,-1.821 -1.881,-0.331 -4.011,-0.357 -5.802,-0.416 -4.827,-0.155 -9.579,0.054 -14.917,1.244 -0.091,0.02 -0.116,0.734 -0.416,0.829 -2.583,0.825 -4.999,0.926 -7.872,1.657 -0.051,0.427 -0.064,0.688 -0.415,0.83 -1.943,0.789 -3,1.148 -4.558,2.071 -3.511,2.083 -7.908,4.104 -11.189,6.216 -1.13,-0.037 -0.533,1.23 -1.358,0.54 0.005,1.678 -3.559,1.703 -2.372,3.19 -0.186,-0.678 2.259,-0.678 2.072,0 -0.421,0.542 -0.406,1.528 -0.828,2.071 1.426,1.729 4.22,1.471 5.8,2.072 2.001,0.764 3.639,2.816 5.802,3.729 3.731,1.575 8.107,1.533 12.433,2.488 3.315,0.731 6.633,0.9 10.074,0.669 0.099,-0.03 0.193,-0.039 0.281,-0.019 0.555,-0.083 0.759,-0.433 0.904,-0.464 0.256,-0.275 0.508,-0.554 0.726,-0.868 0.103,-0.146 0.232,-0.231 0.369,-0.289 0.108,-0.247 0.343,-0.41 0.6,-0.471 0.002,-0.018 0.008,-0.033 0.01,-0.051 0.039,-0.444 0.358,-0.692 0.705,-0.764 0.03,-0.185 0.043,-0.39 0.006,-0.645 -4.229,0.054 -7.797,1.744 -11.603,0 3.434,-0.777 8.319,-1.025 12.019,-2.075 -0.39,1.365 0.096,1.862 0.127,2.771 0.25,0.11 0.435,0.343 0.403,0.712 -0.073,0.835 -0.299,1.594 -0.636,2.292 -0.045,0.397 -0.142,0.787 -0.272,1.167 0.175,-0.084 0.343,-0.178 0.503,-0.285 0.148,-0.166 0.308,-0.323 0.523,-0.476 0.037,-0.025 0.073,-0.033 0.109,-0.051 1.138,-1.131 1.761,-2.885 1.801,-4.422 0.003,-0.124 0.033,-0.23 0.075,-0.325 -0.159,-0.486 -0.338,-1.051 -0.149,-1.797 1.999,1.179 6.719,-0.366 8.703,0.828 -1.577,-0.195 -2.586,0.176 -2.899,1.245 1.072,1.593 1.603,3.471 2.023,5.541 1.479,2.585 2.698,5.316 4.604,7.217 1.097,0.898 2.502,0.622 3.886,0.983 0.273,-0.017 0.213,0.054 0.505,0 1.125,0.097 2.003,0.11 1.414,-1.726 -2.724,-0.258 -7.315,-0.168 -7.046,-4.559 8.05,1.14 14.044,-0.898 21.411,-2.855 0.157,-0.371 0.457,-0.692 0.925,-0.867 1.141,-0.426 2.262,-0.924 3.359,-1.473 0.215,-0.263 0.465,-0.49 0.825,-0.606 h 0.314 c 0.806,-0.439 1.602,-0.897 2.375,-1.391 0.617,-0.476 1.253,-0.929 1.887,-1.378 -0.006,-0.043 -0.017,-0.085 -0.018,-0.13 0.044,0.024 0.093,0.026 0.139,0.042 0.658,-0.466 1.302,-0.926 1.929,-1.39 0.549,-0.624 1.689,-1.274 2.162,-1.945 0.527,-0.735 0.78,-0.848 0.415,-1.281 z M 11.18,40.99 c -0.013,-0.75 2.085,-1.439 2.072,-0.828 0.425,1.394 -1.289,0.647 -2.072,0.828 z m 2.807,0.528 c 2.509,-0.426 4.913,-2.166 7.441,-2.376 0.017,-0.003 1.846,-0.219 2.321,-0.273 1.388,-0.159 3.476,0.542 3.731,0.546 0.778,0.009 0.624,1.06 -5.415,1.377 -0.172,0.009 -0.304,0.016 -0.411,0.021 -0.001,0 -0.002,0 -0.009,0 0,0 0,0 -0.001,0 -10e-4,0 0,0 -0.002,0 h 0.002 c -10e-4,0 -10e-4,0 -0.003,0 -3.445,0.49 -4.926,1.45 -7.333,1.867 -0.761,0.13 -1.088,-1.031 -0.321,-1.162 z m 7.967,0.717 c 0.059,1.716 -2.883,0.432 -4.145,0.829 1.031,-0.628 2.517,-0.8 4.145,-0.829 z m -3.315,3.73 c -0.725,-0.103 -2.388,-0.047 -2.488,-1.244 3.117,0.469 7.836,-1.75 11.784,-1.393 1.098,0.101 7.167,1.087 7.917,2.389 -3.555,-1.336 -13.809,0.727 -17.213,0.248 z m 14.917,2.485 c -4.288,0.5 -9.705,0.397 -12.845,-0.828 5.545,-0.437 11.375,-0.833 16.991,-0.83 -0.483,1.348 -2.699,1.49 -4.146,1.658 z m 30.146,7.3 c -1.785,0.146 -2.148,0.114 -4.866,-0.669 -0.659,-2.104 -0.997,-4.53 -2.487,-5.801 2.21,0.972 6.29,3.652 9.944,4.558 -0.855,1.526 -0.134,1.112 -2.591,1.912 z m -3.208,-7.715 c 2.531,-0.278 4.046,2.292 5.388,2.902 0.245,0.113 5.172,1.45 4.951,2.66 C 68.505,52.751 61.3,50.406 60.494,48.035 Z m 10.773,2.075 c -1.848,-0.561 -5.951,-1.443 -6.268,-3.275 4.892,0.502 13.311,5.024 16.519,4.547 -1.683,2.343 -7.978,-0.585 -10.251,-1.272 z m 3.317,-2.487 c 2.447,-1.152 5.9,1.144 9.944,0.413 -1.701,3.333 -7.001,0.042 -9.944,-0.413 z m 7.042,-2.073 c 2.956,-0.88 6.095,0.378 9.118,-0.829 -1.847,3.016 -5.096,0.718 -9.118,0.829 z"
           id="path2" />
        <path
           fill-rule="evenodd"
           clip-rule="evenodd"
           d="m 38.117,47.207 c 1.673,1.459 0.976,-1.333 0,0 z"
           id="path3" />
      </g>
      <g
         id="g4">
        <path
           d="m 34.597,27.153 c -4.479,1.162 -9.34,2.172 -13.63,3.913 -5.345,2.169 -9.97,6.501 -15.016,9.283 -1.155,0.637 -0.103,1.557 0.83,1.043 4.207,-2.319 8.114,-5.097 12.175,-7.655 4.578,-2.883 10.74,-4.003 15.969,-5.36 1.188,-0.308 0.857,-1.531 -0.328,-1.224 z"
           id="path4" />
      </g>
      <g
         id="g5">
        <path
           d="m 62.958,30.85 c 3.1,2.075 6.633,3.273 10.111,4.552 2.086,0.767 3.62,1.989 5.52,3.025 1.911,1.042 3.948,1.743 5.757,3.003 0.707,0.493 2.397,-0.485 1.488,-1.119 -2.906,-2.027 -6.308,-3.639 -9.396,-5.324 -3.864,-2.108 -8.26,-2.757 -11.991,-5.256 -0.716,-0.479 -2.407,0.505 -1.489,1.119 z"
           id="path5" />
      </g>
      <g
         id="g6">
        <path
           d="m 59.361,29.313 c 2.744,-0.217 6.596,2.875 9.084,4.121 3.332,1.668 6.671,3.337 10.043,4.925 0.584,0.275 2.383,-1.209 1.56,-1.632 -3.754,-1.929 -4.964,-2.734 -8.778,-4.654 -2.855,-1.437 -8.272,-4.116 -11.599,-3.853 -1.007,0.079 -1.775,1.208 -0.31,1.093 z"
           id="path6" />
      </g>
      <g
         id="g8">
        <g
           id="g7">
          <path
             d="M 5.391,42.047 C 5.296,43.543 5.918,45.154 7.57,45.36 8.091,45.425 8.745,45.144 8.889,44.608 9.136,43.692 8.594,42.799 8.798,41.878 9,40.976 7.027,41.236 6.847,42.047 c -0.206,0.926 0.331,1.836 0.091,2.73 0.439,-0.25 0.879,-0.501 1.319,-0.752 -0.806,-0.1 -0.954,-1.543 -0.916,-2.147 0.062,-0.961 -1.898,-0.652 -1.95,0.169 z"
             id="path7" />
        </g>
      </g>
      <g
         id="g9">
        <path
           d="m 46.628,47.682 c 2.413,2.709 -1.538,7.061 -4.135,8.031 0.424,-0.003 0.848,-0.005 1.271,-0.008 1.65,-1.942 5.305,-5.11 3.976,-7.995 -0.194,-0.422 -2.055,0.251 -1.932,0.518 1.295,2.81 -2.322,5.934 -3.942,7.842 -0.213,0.25 1.18,0.026 1.271,-0.008 2.801,-1.046 8.334,-5.628 5.422,-8.898 -0.379,-0.426 -2.009,0.431 -1.931,0.518 z"
           id="path8" />
      </g>
      <g
         id="g10">
        <path
           d="m 45.536,47.955 c -0.12,2.752 -1.568,5.198 -3.84,6.737 -0.803,0.543 1.137,0.294 1.48,0.061 2.505,-1.695 4.158,-4.252 4.292,-7.315 0.012,-0.296 -1.907,-0.054 -1.932,0.517 z"
           id="path9" />
      </g>
      <g
         id="g12">
        <g
           id="g11">
          <path
             d="m 12.542,41.218 c 0.165,-0.079 0.657,-0.29 0.891,-0.5 0.37,-0.333 0.438,-0.717 0.451,-1.198 0.015,-0.553 -1.676,0.017 -1.854,0.283 -0.154,0.231 -0.39,0.497 -0.446,0.776 -0.055,0.275 0.145,0.577 0.231,0.824 0.189,0.539 1.851,0.088 1.925,-0.403 0.046,-0.303 0.153,-0.642 0.109,-0.95 -0.038,-0.263 -0.391,-0.479 -0.575,-0.625 -0.421,-0.337 -1.506,-0.004 -1.871,0.327 -0.129,0.118 -0.269,0.217 -0.234,0.411 0.026,0.146 0.209,0.148 0.236,0.285 0.109,0.547 2.05,0.077 1.932,-0.518 -0.016,-0.08 -0.055,-0.172 -0.115,-0.23 -0.05,-0.048 -0.141,-0.17 -0.125,-0.083 -0.069,0.119 -0.139,0.237 -0.208,0.355 -0.137,0.067 -0.274,0.134 -0.411,0.202 -0.336,-0.014 -0.673,-0.027 -1.009,-0.041 0.146,0.116 0.396,0.261 0.449,0.434 0.061,0.198 -0.066,0.525 -0.096,0.722 0.642,-0.134 1.284,-0.269 1.925,-0.403 -0.07,-0.201 -0.163,-0.396 -0.227,-0.598 -0.048,-0.153 0.207,-0.416 0.285,-0.532 -0.618,0.094 -1.236,0.188 -1.854,0.283 -0.003,0.116 -0.029,0.481 -0.096,0.541 0.115,-0.104 -0.149,0.067 0.022,-0.009 -0.166,0.074 -0.331,0.148 -0.495,0.227 -0.224,0.108 -0.62,0.482 -0.202,0.634 0.437,0.155 0.97,-0.026 1.362,-0.214 z"
             id="path10" />
        </g>
      </g>
      <g
         id="g14">
        <g
           id="g13">
          <path
             d="m 18.284,42.298 c -2.096,0.764 -3.853,1.276 -6.017,0.424 -0.603,-0.237 -3.204,-1.976 -1.276,-2.348 0.845,-0.164 1.644,-1.178 0.305,-0.919 -0.853,0.165 -2.511,0.432 -2.862,1.424 -0.337,0.95 0.596,1.695 1.291,2.169 2.893,1.977 6.287,0.984 9.282,-0.107 1.282,-0.466 0.091,-0.939 -0.723,-0.643 z"
             id="path12" />
        </g>
      </g>
      <g
         id="g16">
        <g
           id="g15">
          <path
             d="m 22.24,41.508 c -1.038,1.21 -2.514,1.301 -4.01,1.39 -0.719,0.042 -1.683,1.159 -0.492,1.143 1.797,-0.024 3.542,-0.365 5.071,-1.353 0.414,-0.268 0.507,-0.695 -0.021,-0.863 -0.807,-0.257 -1.601,-0.283 -2.438,-0.188 -0.374,0.042 -0.998,0.246 -1.092,0.679 -0.096,0.443 0.571,0.485 0.845,0.454 0.542,-0.062 0.995,-0.015 1.514,0.15 -0.007,-0.288 -0.014,-0.575 -0.021,-0.863 -0.948,0.613 -2.004,0.815 -3.121,0.831 -0.164,0.381 -0.328,0.762 -0.492,1.143 2.101,-0.124 4.372,-0.471 5.819,-2.158 0.755,-0.882 -1.116,-0.885 -1.562,-0.365 z"
             id="path14" />
        </g>
      </g>
      <g
         id="g17">
        <path
           d="m 43.08,54.4 c -3.606,1.646 -4.202,5.943 -1.777,8.945 2.651,3.283 8.012,2.692 11.7,2.355 0.492,-0.045 2.11,-0.88 0.84,-0.764 -3.326,0.304 -6.913,0.615 -9.801,-1.381 -2.861,-1.979 -3.341,-7.321 0.149,-8.914 C 45.35,54.113 43.529,54.195 43.08,54.4 Z"
           id="path16" />
      </g>
      <g
         id="g18">
        <path
           d="m 44.54,53.112 c -2.271,1.675 -5.657,5.402 -3.04,8.255 3.554,3.873 10.165,3.104 14.878,3.077 0.369,-0.003 2.187,-0.737 1.268,-0.732 -4.524,0.025 -9.604,0.552 -13.512,-2.198 -3.632,-2.556 -0.325,-6.767 2.144,-8.587 0.368,-0.272 -1.384,-0.075 -1.738,0.185 z"
           id="path17" />
      </g>
      <g
         id="g19">
        <path
           d="m 45.061,53.562 c -2.168,2.562 -4.217,6.43 -1.37,9.247 2.083,2.063 6.493,2.546 9.253,2.608 0.288,0.007 1.985,-0.673 1.156,-0.972 -2.889,-1.04 -6.315,-0.418 -8.911,-2.229 -2.559,-1.785 -0.047,-5.463 0.91,-7.415 0.259,-0.527 -1.637,-0.332 -1.927,0.26 -0.91,1.854 -3.063,4.933 -1.556,7.013 2.262,3.122 6.724,2.116 9.937,3.273 0.386,-0.324 0.771,-0.647 1.156,-0.972 -2.703,-0.062 -6.021,-0.639 -8.22,-2.306 -2.953,-2.24 -0.387,-6.435 1.361,-8.501 0.527,-0.621 -1.408,-0.458 -1.789,-0.006 z"
           id="path18" />
      </g>
      <g
         id="g20">
        <path
           d="m 42.876,63.917 c 2.071,1.668 4.639,1.787 7.186,1.495 0.958,-0.11 1.586,-1.272 0.251,-1.119 -1.995,0.229 -4.014,0.168 -5.646,-1.146 -0.553,-0.445 -2.35,0.32 -1.791,0.77 z"
           id="path19" />
      </g>
      <g
         id="g21">
        <path
           d="m 51.251,65.632 c 2.08,0.012 4.067,-0.464 6.014,-1.17 0.109,-0.039 0.867,-0.366 0.566,-0.585 -0.313,-0.229 -0.937,-0.025 -1.25,0.089 -1.32,0.479 -2.674,0.843 -4.088,0.834 -0.469,-0.002 -0.972,0.102 -1.366,0.366 -0.295,0.197 -0.264,0.463 0.124,0.466 z"
           id="path20" />
      </g>
      <g
         id="g22">
        <path
           d="m 43.204,53.688 c -0.822,0.817 -1.828,1.396 -2.548,2.32 -0.727,0.933 -0.796,2.146 -0.808,3.278 -0.005,0.444 1.925,0.133 1.932,-0.518 0.014,-1.262 0.183,-2.345 1.057,-3.305 0.628,-0.69 1.475,-1.175 2.14,-1.835 0.331,-0.329 -0.283,-0.439 -0.487,-0.433 -0.453,0.016 -0.96,0.168 -1.286,0.493 z"
           id="path21" />
      </g>
      <g
         id="g23">
        <path
           d="m 41.925,57.158 c 0.571,-1.118 1.042,-1.765 2.092,-2.476 1.046,-0.709 1.951,-1.615 2.709,-2.62 0.75,-0.994 -1.067,-1.384 -1.634,-0.633 -0.817,1.084 -1.79,1.925 -2.928,2.658 -1.048,0.676 -1.551,1.733 -2.099,2.805 -0.513,1.008 1.446,1.077 1.86,0.266 z"
           id="path22" />
      </g>
      <g
         id="g24">
        <path
           d="m 41.869,53.648 c 0.753,-0.198 1.48,-0.487 2.092,-0.979 0.583,-0.469 1.013,-1.083 1.477,-1.662 0.761,-0.949 -1.082,-1.175 -1.604,-0.523 -0.691,0.862 -1.19,1.614 -2.301,1.907 -0.36,0.095 -0.92,0.431 -0.797,0.888 0.122,0.458 0.773,0.464 1.133,0.369 z"
           id="path23" />
      </g>
    </g>
  </g>
</svg>
