
        <svg xmlns="http://www.w3.org/2000/svg" xmlns:xlink="http://www.w3.org/1999/xlink" version="1.1" width="3171.4285714285716" 
        height="1395.029298368634" viewBox="0 0 3171.4285714285716 1395.029298368634">
			
			<g transform="scale(8.571428571428571) translate(10, 10)">
				<defs id="SvgjsDefs17035"></defs><g id="SvgjsG17036" featureKey="41S5F6-0" transform="matrix(1.5669559046868002,0,0,1.5669559046868002,96.5671940425194,-40.78512559715917)" fill="#fa8c3e"><g xmlns="http://www.w3.org/2000/svg"><path fill-rule="evenodd" clip-rule="evenodd" d="M71.856,33.937c-0.287-0.04-0.569-0.087-0.851-0.139   c1.472,0.68,2.882,1.618,4.267,2.521C74.224,35.397,73.021,34.696,71.856,33.937z"></path><path d="M94.555,43.874c-1.256-0.377-2.913-0.377-3.959-1.138c-0.634-0.296-1.597-0.624-2.185-1.001   c-3.882-2.23-6.507-4.323-10.888-5.719c-0.374,0.378-0.677,1.083-1.218,0.962c0.394,0.245,0.785,0.482,1.178,0.697   c1.237,0.68,2.491,1.421,3.729,2.074c1.054,0.553,2.716,0.821,3.315,2.071c-4.847,1.582-10.724,1.98-16.161,2.485   c-8.174,0.766-15.134-0.002-23.641-2.343c-8.932-2.458-13.788-7.508-29.402-3.043c4.143-3.895,9.739-5.385,15.332-7.044   c5.264-1.562,11.139-3.132,17.404-3.315c0.208-0.006,0.406,0.007,0.607,0.013c2.641-0.303,5.399-0.038,7.917,0.67   c1.049,0.294,1.961,0.512,3.431,1.047c1.945,0.888,2.948,1.193,4.619,1.999c1.02,0.491,3.262,1.321,4.396,1.509   c-1.834-0.728-4.438-2.649-5.886-4.18c-0.183-0.193-0.282-0.4-0.347-0.61c-0.415-0.229-0.836-0.456-1.228-0.698   c-2.706-0.802-5.372-1.555-6.881-1.821c-1.881-0.331-4.011-0.357-5.802-0.416c-4.827-0.155-9.579,0.054-14.917,1.244   c-0.091,0.02-0.116,0.734-0.416,0.829c-2.583,0.825-4.999,0.926-7.872,1.657c-0.051,0.427-0.064,0.688-0.415,0.83   c-1.943,0.789-3,1.148-4.558,2.071c-3.511,2.083-7.908,4.104-11.189,6.216c-1.13-0.037-0.533,1.23-1.358,0.54   c0.005,1.678-3.559,1.703-2.372,3.19c-0.186-0.678,2.259-0.678,2.072,0c-0.421,0.542-0.406,1.528-0.828,2.071   c1.426,1.729,4.22,1.471,5.8,2.072c2.001,0.764,3.639,2.816,5.802,3.729c3.731,1.575,8.107,1.533,12.433,2.488   c3.315,0.731,6.633,0.9,10.074,0.669c0.099-0.03,0.193-0.039,0.281-0.019c0.555-0.083,0.759-0.433,0.904-0.464   c0.256-0.275,0.508-0.554,0.726-0.868c0.103-0.146,0.232-0.231,0.369-0.289c0.108-0.247,0.343-0.41,0.6-0.471   c0.002-0.018,0.008-0.033,0.01-0.051c0.039-0.444,0.358-0.692,0.705-0.764c0.03-0.185,0.043-0.39,0.006-0.645   c-4.229,0.054-7.797,1.744-11.603,0c3.434-0.777,8.319-1.025,12.019-2.075c-0.39,1.365,0.096,1.862,0.127,2.771   c0.25,0.11,0.435,0.343,0.403,0.712c-0.073,0.835-0.299,1.594-0.636,2.292c-0.045,0.397-0.142,0.787-0.272,1.167   c0.175-0.084,0.343-0.178,0.503-0.285c0.148-0.166,0.308-0.323,0.523-0.476c0.037-0.025,0.073-0.033,0.109-0.051   c1.138-1.131,1.761-2.885,1.801-4.422c0.003-0.124,0.033-0.23,0.075-0.325c-0.159-0.486-0.338-1.051-0.149-1.797   c1.999,1.179,6.719-0.366,8.703,0.828c-1.577-0.195-2.586,0.176-2.899,1.245c1.072,1.593,1.603,3.471,2.023,5.541   c1.479,2.585,2.698,5.316,4.604,7.217c1.097,0.898,2.502,0.622,3.886,0.983c0.273-0.017,0.213,0.054,0.505,0   c1.125,0.097,2.003,0.11,1.414-1.726c-2.724-0.258-7.315-0.168-7.046-4.559c8.05,1.14,14.044-0.898,21.411-2.855   c0.157-0.371,0.457-0.692,0.925-0.867c1.141-0.426,2.262-0.924,3.359-1.473c0.215-0.263,0.465-0.49,0.825-0.606h0.314   c0.806-0.439,1.602-0.897,2.375-1.391c0.617-0.476,1.253-0.929,1.887-1.378c-0.006-0.043-0.017-0.085-0.018-0.13   c0.044,0.024,0.093,0.026,0.139,0.042c0.658-0.466,1.302-0.926,1.929-1.39c0.549-0.624,1.689-1.274,2.162-1.945   C94.667,44.42,94.92,44.307,94.555,43.874z M11.18,40.99c-0.013-0.75,2.085-1.439,2.072-0.828   C13.677,41.556,11.963,40.809,11.18,40.99z M13.987,41.518c2.509-0.426,4.913-2.166,7.441-2.376   c0.017-0.003,1.846-0.219,2.321-0.273c1.388-0.159,3.476,0.542,3.731,0.546c0.778,0.009,0.624,1.06-5.415,1.377   c-0.172,0.009-0.304,0.016-0.411,0.021c-0.001,0-0.002,0-0.009,0c0,0,0,0-0.001,0c-0.001,0,0,0-0.002,0h0.002   c-0.001,0-0.001,0-0.003,0c-3.445,0.49-4.926,1.45-7.333,1.867C13.547,42.81,13.22,41.649,13.987,41.518z M21.954,42.235   c0.059,1.716-2.883,0.432-4.145,0.829C18.84,42.436,20.326,42.264,21.954,42.235z M18.639,45.965   c-0.725-0.103-2.388-0.047-2.488-1.244c3.117,0.469,7.836-1.75,11.784-1.393c1.098,0.101,7.167,1.087,7.917,2.389   C32.297,44.381,22.043,46.444,18.639,45.965z M33.556,48.45c-4.288,0.5-9.705,0.397-12.845-0.828   c5.545-0.437,11.375-0.833,16.991-0.83C37.219,48.14,35.003,48.282,33.556,48.45z M63.702,55.75   c-1.785,0.146-2.148,0.114-4.866-0.669c-0.659-2.104-0.997-4.53-2.487-5.801c2.21,0.972,6.29,3.652,9.944,4.558   C65.438,55.364,66.159,54.95,63.702,55.75z M60.494,48.035c2.531-0.278,4.046,2.292,5.388,2.902c0.245,0.113,5.172,1.45,4.951,2.66   C68.505,52.751,61.3,50.406,60.494,48.035z M71.267,50.11c-1.848-0.561-5.951-1.443-6.268-3.275   c4.892,0.502,13.311,5.024,16.519,4.547C79.835,53.725,73.54,50.797,71.267,50.11z M74.584,47.623   c2.447-1.152,5.9,1.144,9.944,0.413C82.827,51.369,77.527,48.078,74.584,47.623z M81.626,45.55c2.956-0.88,6.095,0.378,9.118-0.829   C88.897,47.737,85.648,45.439,81.626,45.55z"></path><path fill-rule="evenodd" clip-rule="evenodd" d="M38.117,47.207C39.79,48.666,39.093,45.874,38.117,47.207L38.117,47.207z"></path></g><g xmlns="http://www.w3.org/2000/svg"><path d="M34.597,27.153c-4.479,1.162-9.34,2.172-13.63,3.913c-5.345,2.169-9.97,6.501-15.016,9.283   c-1.155,0.637-0.103,1.557,0.83,1.043c4.207-2.319,8.114-5.097,12.175-7.655c4.578-2.883,10.74-4.003,15.969-5.36   C36.113,28.069,35.782,26.846,34.597,27.153L34.597,27.153z"></path></g><g xmlns="http://www.w3.org/2000/svg"><path d="M62.958,30.85c3.1,2.075,6.633,3.273,10.111,4.552c2.086,0.767,3.62,1.989,5.52,3.025c1.911,1.042,3.948,1.743,5.757,3.003   c0.707,0.493,2.397-0.485,1.488-1.119c-2.906-2.027-6.308-3.639-9.396-5.324c-3.864-2.108-8.26-2.757-11.991-5.256   C63.731,29.252,62.04,30.236,62.958,30.85L62.958,30.85z"></path></g><g xmlns="http://www.w3.org/2000/svg"><path d="M59.361,29.313c2.744-0.217,6.596,2.875,9.084,4.121c3.332,1.668,6.671,3.337,10.043,4.925   c0.584,0.275,2.383-1.209,1.56-1.632c-3.754-1.929-4.964-2.734-8.778-4.654c-2.855-1.437-8.272-4.116-11.599-3.853   C58.664,28.299,57.896,29.428,59.361,29.313L59.361,29.313z"></path></g><g xmlns="http://www.w3.org/2000/svg"><g><path d="M5.391,42.047c-0.095,1.496,0.527,3.107,2.179,3.313c0.521,0.065,1.175-0.216,1.319-0.752    c0.247-0.916-0.295-1.809-0.091-2.73C9,40.976,7.027,41.236,6.847,42.047c-0.206,0.926,0.331,1.836,0.091,2.73    c0.439-0.25,0.879-0.501,1.319-0.752c-0.806-0.1-0.954-1.543-0.916-2.147C7.403,40.917,5.443,41.226,5.391,42.047L5.391,42.047z"></path></g></g><g xmlns="http://www.w3.org/2000/svg"><path d="M46.628,47.682c2.413,2.709-1.538,7.061-4.135,8.031c0.424-0.003,0.848-0.005,1.271-0.008   c1.65-1.942,5.305-5.11,3.976-7.995c-0.194-0.422-2.055,0.251-1.932,0.518c1.295,2.81-2.322,5.934-3.942,7.842   c-0.213,0.25,1.18,0.026,1.271-0.008c2.801-1.046,8.334-5.628,5.422-8.898C48.18,46.738,46.55,47.595,46.628,47.682L46.628,47.682z   "></path></g><g xmlns="http://www.w3.org/2000/svg"><path d="M45.536,47.955c-0.12,2.752-1.568,5.198-3.84,6.737c-0.803,0.543,1.137,0.294,1.48,0.061   c2.505-1.695,4.158-4.252,4.292-7.315C47.48,47.142,45.561,47.384,45.536,47.955L45.536,47.955z"></path></g><g xmlns="http://www.w3.org/2000/svg"><g><path d="M12.542,41.218c0.165-0.079,0.657-0.29,0.891-0.5c0.37-0.333,0.438-0.717,0.451-1.198    c0.015-0.553-1.676,0.017-1.854,0.283c-0.154,0.231-0.39,0.497-0.446,0.776c-0.055,0.275,0.145,0.577,0.231,0.824    c0.189,0.539,1.851,0.088,1.925-0.403c0.046-0.303,0.153-0.642,0.109-0.95c-0.038-0.263-0.391-0.479-0.575-0.625    c-0.421-0.337-1.506-0.004-1.871,0.327c-0.129,0.118-0.269,0.217-0.234,0.411c0.026,0.146,0.209,0.148,0.236,0.285    c0.109,0.547,2.05,0.077,1.932-0.518c-0.016-0.08-0.055-0.172-0.115-0.23c-0.05-0.048-0.141-0.17-0.125-0.083    c-0.069,0.119-0.139,0.237-0.208,0.355c-0.137,0.067-0.274,0.134-0.411,0.202c-0.336-0.014-0.673-0.027-1.009-0.041    c0.146,0.116,0.396,0.261,0.449,0.434c0.061,0.198-0.066,0.525-0.096,0.722c0.642-0.134,1.284-0.269,1.925-0.403    c-0.07-0.201-0.163-0.396-0.227-0.598c-0.048-0.153,0.207-0.416,0.285-0.532c-0.618,0.094-1.236,0.188-1.854,0.283    c-0.003,0.116-0.029,0.481-0.096,0.541c0.115-0.104-0.149,0.067,0.022-0.009c-0.166,0.074-0.331,0.148-0.495,0.227    c-0.224,0.108-0.62,0.482-0.202,0.634C11.617,41.587,12.15,41.406,12.542,41.218L12.542,41.218z"></path></g></g><g xmlns="http://www.w3.org/2000/svg"><g><path d="M18.284,42.298c-2.096,0.764-3.853,1.276-6.017,0.424c-0.603-0.237-3.204-1.976-1.276-2.348    c0.845-0.164,1.644-1.178,0.305-0.919c-0.853,0.165-2.511,0.432-2.862,1.424c-0.337,0.95,0.596,1.695,1.291,2.169    c2.893,1.977,6.287,0.984,9.282-0.107C20.289,42.475,19.098,42.002,18.284,42.298L18.284,42.298z"></path></g></g><g xmlns="http://www.w3.org/2000/svg"><g><path d="M22.24,41.508c-1.038,1.21-2.514,1.301-4.01,1.39c-0.719,0.042-1.683,1.159-0.492,1.143    c1.797-0.024,3.542-0.365,5.071-1.353c0.414-0.268,0.507-0.695-0.021-0.863c-0.807-0.257-1.601-0.283-2.438-0.188    c-0.374,0.042-0.998,0.246-1.092,0.679c-0.096,0.443,0.571,0.485,0.845,0.454c0.542-0.062,0.995-0.015,1.514,0.15    c-0.007-0.288-0.014-0.575-0.021-0.863c-0.948,0.613-2.004,0.815-3.121,0.831c-0.164,0.381-0.328,0.762-0.492,1.143    c2.101-0.124,4.372-0.471,5.819-2.158C24.557,40.991,22.686,40.988,22.24,41.508L22.24,41.508z"></path></g></g><g xmlns="http://www.w3.org/2000/svg"><path d="M43.08,54.4c-3.606,1.646-4.202,5.943-1.777,8.945c2.651,3.283,8.012,2.692,11.7,2.355c0.492-0.045,2.11-0.88,0.84-0.764   c-3.326,0.304-6.913,0.615-9.801-1.381c-2.861-1.979-3.341-7.321,0.149-8.914C45.35,54.113,43.529,54.195,43.08,54.4L43.08,54.4z"></path></g><g xmlns="http://www.w3.org/2000/svg"><path d="M44.54,53.112c-2.271,1.675-5.657,5.402-3.04,8.255c3.554,3.873,10.165,3.104,14.878,3.077   c0.369-0.003,2.187-0.737,1.268-0.732c-4.524,0.025-9.604,0.552-13.512-2.198c-3.632-2.556-0.325-6.767,2.144-8.587   C46.646,52.655,44.894,52.852,44.54,53.112L44.54,53.112z"></path></g><g xmlns="http://www.w3.org/2000/svg"><path d="M45.061,53.562c-2.168,2.562-4.217,6.43-1.37,9.247c2.083,2.063,6.493,2.546,9.253,2.608   c0.288,0.007,1.985-0.673,1.156-0.972c-2.889-1.04-6.315-0.418-8.911-2.229c-2.559-1.785-0.047-5.463,0.91-7.415   c0.259-0.527-1.637-0.332-1.927,0.26c-0.91,1.854-3.063,4.933-1.556,7.013c2.262,3.122,6.724,2.116,9.937,3.273   c0.386-0.324,0.771-0.647,1.156-0.972c-2.703-0.062-6.021-0.639-8.22-2.306c-2.953-2.24-0.387-6.435,1.361-8.501   C47.377,52.947,45.442,53.11,45.061,53.562L45.061,53.562z"></path></g><g xmlns="http://www.w3.org/2000/svg"><path d="M42.876,63.917c2.071,1.668,4.639,1.787,7.186,1.495c0.958-0.11,1.586-1.272,0.251-1.119   c-1.995,0.229-4.014,0.168-5.646-1.146C44.114,62.702,42.317,63.467,42.876,63.917L42.876,63.917z"></path></g><g xmlns="http://www.w3.org/2000/svg"><path d="M51.251,65.632c2.08,0.012,4.067-0.464,6.014-1.17c0.109-0.039,0.867-0.366,0.566-0.585   c-0.313-0.229-0.937-0.025-1.25,0.089c-1.32,0.479-2.674,0.843-4.088,0.834c-0.469-0.002-0.972,0.102-1.366,0.366   C50.832,65.363,50.863,65.629,51.251,65.632L51.251,65.632z"></path></g><g xmlns="http://www.w3.org/2000/svg"><path d="M43.204,53.688c-0.822,0.817-1.828,1.396-2.548,2.32c-0.727,0.933-0.796,2.146-0.808,3.278   c-0.005,0.444,1.925,0.133,1.932-0.518c0.014-1.262,0.183-2.345,1.057-3.305c0.628-0.69,1.475-1.175,2.14-1.835   c0.331-0.329-0.283-0.439-0.487-0.433C44.037,53.211,43.53,53.363,43.204,53.688L43.204,53.688z"></path></g><g xmlns="http://www.w3.org/2000/svg"><path d="M41.925,57.158c0.571-1.118,1.042-1.765,2.092-2.476c1.046-0.709,1.951-1.615,2.709-2.62   c0.75-0.994-1.067-1.384-1.634-0.633c-0.817,1.084-1.79,1.925-2.928,2.658c-1.048,0.676-1.551,1.733-2.099,2.805   C39.552,57.9,41.511,57.969,41.925,57.158L41.925,57.158z"></path></g><g xmlns="http://www.w3.org/2000/svg"><path d="M41.869,53.648c0.753-0.198,1.48-0.487,2.092-0.979c0.583-0.469,1.013-1.083,1.477-1.662   c0.761-0.949-1.082-1.175-1.604-0.523c-0.691,0.862-1.19,1.614-2.301,1.907c-0.36,0.095-0.92,0.431-0.797,0.888   C40.858,53.737,41.509,53.743,41.869,53.648L41.869,53.648z"></path></g></g><g id="SvgjsG17037" featureKey="RGwKHf-0" transform="matrix(2.6828396208683136,0,0,2.6828396208683136,-2.541764242958008,66.91479303422662)" fill="#00fc65"><path d="M12.051 17.0996 l0 0 q0 1.2109375 -0.8544921875 2.060546875 t-2.0557 0.84961 l0 0 l0 -11.104 l-5.293 0 l0 8.1934 l0 0 q-1.201171875 0 -2.05078125 -0.849609375 t-0.84961 -2.0508 l0 -5.293 q0 -1.201171875 0.849609375 -2.05078125 t2.0508 -0.84961 l5.293 0 q1.201171875 0 2.055664063 0.849609375 t0.85449 2.0508 l0 8.1934 z M12.666 6.006 l0 0 l0 2.9004 l4.6777 0 l0 8.1934 l0 0 q1.201171875 0 2.05078125 -0.849609375 t0.84961 -2.0508 l0 -5.293 q0 -1.201171875 -0.849609375 -2.05078125 t-2.0508 -0.84961 l-4.6777 0 z M35.194984375000004 5.996 l0 0 l0.84961 0 l0 2.0508 l-5.5469 5.5566 l0 3.4961 q0 1.201171875 -0.8544921875 2.05078125 t-2.0557 0.84961 l0 -6.3965 l-5.5469 -5.5566 l0 -2.0508 l0.84961 0 q1.15234375 0 2.05078125 0.849609375 l4.1016 4.1016 l4.1016 -4.1016 q0.8984375 -0.849609375 2.05078125 -0.849609375 z M49.072484375 20 l0 0 q1.2109375 0 2.060546875 -0.849609375 t0.84961 -2.0508 l0 0 l-11.104 0 l0 -8.2031 l8.1934 0 l0 0 q0 -1.201171875 -0.849609375 -2.05078125 t-2.0508 -0.84961 l-5.293 0 q-1.201171875 0 -2.05078125 0.849609375 t-0.84961 2.0508 l0 8.2031 q0 1.201171875 0.849609375 2.05078125 t2.0508 0.84961 l8.1934 0 z M64.68771875 8.906 l0 0 q1.2109375 0 2.060546875 -0.8544921875 t0.84961 -2.0557 l0 0 l-11.104 0 q-1.201171875 0 -2.05078125 0.849609375 t-0.84961 2.0605 l0 11.094 l0 0 q1.201171875 0 2.05078125 -0.849609375 t0.84961 -2.0508 l0 -8.1934 l8.1934 0 z M57.11911875 17.0996 l0 0 l0 2.9004 l10.479 0 l0 0 q0 -1.201171875 -0.849609375 -2.05078125 t-2.0605 -0.84961 l-7.5684 0 z M57.11911875 11.8066 l0 0 l5.7813 0 l0 0 q0 1.201171875 -0.849609375 2.05078125 t-2.0508 0.84961 l-2.8809 0 l0 -2.9004 z M80.312953125 17.0996 l0 0 q1.201171875 0 2.05078125 0.849609375 t0.84961 2.0508 l0 0 l-11.104 0 q-1.201171875 0 -2.05078125 -0.849609375 t-0.84961 -2.0508 l0 -11.104 l0 0 q1.201171875 0 2.05078125 0.849609375 t0.84961 2.0605 l0 8.1934 l8.2031 0 z M87.900403125 5.996 l0 0 l0 0 q-1.201171875 0 -2.05078125 0.849609375 t-0.84961 2.0508 l0 11.104 l0 0 q1.201171875 0 2.05078125 -0.849609375 t0.84961 -2.0508 l0 -7.4707 l7.5781 5.8105 l0 -3.6328 z M96.094203125 5.996 l0 0 l0 0 q1.2109375 0 2.060546875 0.849609375 t0.84961 2.0508 l0 11.104 l0 0 q-1.201171875 0 -2.055664063 -0.849609375 t-0.85449 -2.0508 l0 -11.104 z M111.943578125 8.906 l0 0 q1.2109375 0 2.060546875 -0.8544921875 t0.84961 -2.0557 l0 0 l-11.104 0 q-1.201171875 0 -2.05078125 0.849609375 t-0.84961 2.0605 l0 11.094 l0 0 q1.201171875 0 2.05078125 -0.849609375 t0.84961 -2.0508 l0 -8.1934 l8.1934 0 z M104.374978125 17.0996 l0 0 l0 2.9004 l10.479 0 l0 0 q0 -1.201171875 -0.849609375 -2.05078125 t-2.0605 -0.84961 l-7.5684 0 z M104.374978125 11.8066 l0 0 l5.7813 0 l0 0 q0 1.201171875 -0.849609375 2.05078125 t-2.0508 0.84961 l-2.8809 0 l0 -2.9004 z M124.8926125 17.0996 l0 0 q0 1.201171875 -0.849609375 2.05078125 t-2.0508 0.84961 l0 0 l0 -11.104 l-6.4648 0 l0 0 q0 -1.201171875 0.849609375 -2.05078125 t2.0605 -0.84961 l3.5547 0 q1.201171875 0 2.05078125 0.849609375 t0.84961 2.0508 l0 8.2031 z M128.5058125 8.896 l0 0 q1.201171875 0 2.05078125 -0.849609375 t0.84961 -2.0508 l0 0 l-5.8887 0 l0 2.9004 l2.9883 0 z"></path></g><g id="SvgjsG17038" featureKey="UxezYZ-0" transform="matrix(0.8422306736321636,0,0,0.8422306736321636,36.13654761556381,125.90874683897319)" fill="#fa8c3e"><path d="M1.0254 14.414100000000001 l13.955 0 q0 1.15234375 -0.810546875 1.97265625 q-0.8203125 0.8203125 -1.97265625 0.8203125 l-11.172 0 l0 2.793 l11.172 0 q2.3046875 0 3.9453125 -1.640625 q1.630859375 -1.630859375 1.630859375 -3.9453125 l0 -2.793 l-13.955 0 q0 -1.15234375 0.8203125 -1.97265625 t1.9727 -0.82031 l11.162 0 l0 -2.7832 l-11.162 0 q-2.314453125 0 -3.9453125 1.630859375 q-1.640625 1.640625 -1.640625 3.9453125 l0 2.793 z M49.247578125000004 6.045 l0 5.5762 l-11.162 0 l0 -5.5762 l-2.793 0 l0 13.955 l2.793 0 l0 -5.5859 l11.162 0 l0 5.5859 l2.793 0 l0 -13.955 l-2.793 0 z M72.35355625 8.828 l10.928 0 q-0.439453125 1.240234375 -1.50390625 2.01171875 q-1.09375 0.78125 -2.44140625 0.78125 l-6.9824 0 l0 -2.793 z M69.56055625 20 l2.793 0 l0 -5.5859 l6.9824 0 q1.728515625 0 2.958984375 1.23046875 q1.220703125 1.23046875 1.220703125 2.958984375 l0 1.3965 l2.793 0 l0 -1.3965 q0 -1.6796875 -0.76171875 -3.1640625 q-0.732421875 -1.4453125 -2.03125 -2.421875 q1.298828125 -0.9765625 2.03125 -2.412109375 q0.76171875 -1.484375 0.76171875 -3.173828125 l0 -1.3867 l-16.748 0 l0 13.955 z M117.782734375 14.414100000000001 q0 1.15234375 -0.810546875 1.97265625 q-0.8203125 0.8203125 -1.97265625 0.8203125 l-8.3789 0 l0 -5.5859 q0 -1.15234375 0.8203125 -1.97265625 t1.9727 -0.82031 l8.3691 0 l0 5.5859 z M103.828134375 20 l11.172 0 q2.3046875 0 3.9453125 -1.640625 q1.630859375 -1.630859375 1.630859375 -3.9453125 l0 -8.3691 l-11.162 0 q-2.314453125 0 -3.9453125 1.630859375 q-1.640625 1.640625 -1.640625 3.9453125 l0 8.3789 z M152.0503125 14.414100000000001 q0 1.15234375 -0.810546875 1.97265625 q-0.8203125 0.8203125 -1.97265625 0.8203125 l-8.3789 0 l0 -5.5859 q0 -1.15234375 0.8203125 -1.97265625 t1.9727 -0.82031 l8.3691 0 l0 5.5859 z M138.0957125 20 l11.172 0 q2.3046875 0 3.9453125 -1.640625 q1.630859375 -1.630859375 1.630859375 -3.9453125 l0 -8.3691 l-11.162 0 q-2.314453125 0 -3.9453125 1.630859375 q-1.640625 1.640625 -1.640625 3.9453125 l0 8.3789 z M192.216890625 6.045 l-7.9883 9.0527 l-7.9883 -9.0527 l-3.877 0 l0 13.955 l2.793 0 l0 -10.967 l9.0723 10.283 l9.0723 -10.283 l0 10.967 l2.793 0 l0 -13.955 l-3.877 0 z M213.613290625 14.414100000000001 l11.865 0 l0 -2.793 l-11.865 0 l0 2.793 z M256.95265625 14.414100000000001 q0 1.15234375 -0.810546875 1.97265625 q-0.8203125 0.8203125 -1.97265625 0.8203125 l-8.3789 0 l0 -5.5859 q0 -1.15234375 0.8203125 -1.97265625 t1.9727 -0.82031 l8.3691 0 l0 5.5859 z M242.99805625 20 l11.172 0 q2.3046875 0 3.9453125 -1.640625 q1.630859375 -1.630859375 1.630859375 -3.9453125 l0 -8.3691 l-11.162 0 q-2.314453125 0 -3.9453125 1.630859375 q-1.640625 1.640625 -1.640625 3.9453125 l0 8.3789 z M280.058634375 8.828 l11.162 0 q0 1.162109375 -0.810546875 1.97265625 q-0.8203125 0.8203125 -1.97265625 0.8203125 l-8.3789 0 l0 -2.793 z M277.265634375 20 l2.793 0 l0 -5.5859 l8.3789 0 q2.3046875 0 3.9453125 -1.630859375 q1.630859375 -1.640625 1.630859375 -3.955078125 l0 -2.7832 l-16.748 0 l0 13.955 z M311.5332125 14.414100000000001 l13.955 0 q0 1.15234375 -0.810546875 1.97265625 q-0.8203125 0.8203125 -1.97265625 0.8203125 l-11.172 0 l0 2.793 l11.172 0 q2.3046875 0 3.9453125 -1.640625 q1.630859375 -1.630859375 1.630859375 -3.9453125 l0 -2.793 l-13.955 0 q0 -1.15234375 0.8203125 -1.97265625 t1.9727 -0.82031 l11.162 0 l0 -2.7832 l-11.162 0 q-2.314453125 0 -3.9453125 1.630859375 q-1.640625 1.640625 -1.640625 3.9453125 l0 2.793 z"></path></g>
			</g>
		</svg>
	